<?xml version="1.0" standalone="no"?>
<!DOCTYPE svg PUBLIC "-//W3C//DTD SVG 20010904//EN"
 "http://www.w3.org/TR/2001/REC-SVG-20010904/DTD/svg10.dtd">
<svg version="1.0" xmlns="http://www.w3.org/2000/svg"
 width="945.000000pt" height="945.000000pt" viewBox="0 0 945.000000 945.000000"
 preserveAspectRatio="xMidYMid meet">
<metadata>
Created by potrace 1.11, written by Peter Selinger 2001-2013
</metadata>
<g transform="translate(0.000000,945.000000) scale(0.100000,-0.100000)"
fill="#000000" stroke="none">
<path d="M0 4725 l0 -4725 4725 0 4725 0 0 4725 0 4725 -4725 0 -4725 0 0
-4725z m2933 2713 c2 -7 116 -444 253 -970 136 -527 251 -958 254 -958 3 0
118 436 256 970 l249 970 438 0 437 0 0 -1400 0 -1400 174 0 c130 0 175 -3
179 -12 2 -7 116 -444 253 -971 136 -526 251 -957 254 -957 3 0 118 436 256
970 l249 970 438 0 437 0 0 -1435 0 -1435 -270 0 -270 0 -1 1118 -1 1117 -280
-1117 -280 -1118 -282 0 -281 0 -275 1117 -275 1117 -3 -1117 -2 -1117 -275 0
-275 0 -1 1258 c-1 691 -5 1823 -8 2515 l-6 1257 -279 -1115 -278 -1115 -282
0 -281 0 -275 1117 -275 1117 -3 -1117 -2 -1117 -275 0 -275 0 0 1435 0 1435
439 0 c342 0 440 -3 444 -12z"/>
</g>
</svg>
